<svg width="263" height="79" viewBox="0 0 263 79" fill="none" xmlns="http://www.w3.org/2000/svg">
<g clip-path="url(#clip0_431_80)">
<path d="M225.45 78.26H246.31L255.34 50.38H262.7V36.84H244.71L235.68 64.71H225.45V78.26Z" fill="url(#paint0_linear_431_80)"/>
<path d="M252.47 50.11H262.71V36.57H255.34L246.31 8.69H225.46V22.23H235.68L242.86 42.57C243.94 47 247.91 50.11 252.46 50.11H252.47Z" fill="url(#paint1_linear_431_80)"/>
<path d="M37.25 8.69H16.39L7.37 36.57H0V50.11H18L27.03 22.23H37.25V8.69Z" fill="url(#paint2_linear_431_80)"/>
<path d="M10.24 36.84H0V50.38H7.37L16.4 78.26H37.25V64.72H27.03L19.85 44.38C18.77 39.95 14.8 36.84 10.25 36.84H10.24Z" fill="url(#paint3_linear_431_80)"/>
<path d="M75.0202 8.69V37.38H65.3502V26.81H56.4102V37.38H46.7402V8.69H56.4102V18.85H65.3502V8.69H75.0202Z" fill="white"/>
<path d="M78.5098 23.03C78.5098 14.34 85.3498 8.03003 94.6998 8.03003C104.05 8.03003 110.89 14.34 110.89 23.03C110.89 31.72 104.05 38.03 94.6998 38.03C85.3498 38.03 78.5098 31.72 78.5098 23.03ZM101.13 23.03C101.13 18.56 98.2598 15.86 94.6998 15.86C91.1398 15.86 88.2598 18.57 88.2598 23.03C88.2598 27.49 91.1298 30.2 94.6998 30.2C98.2698 30.2 101.13 27.5 101.13 23.03Z" fill="white"/>
<path d="M141.38 29.06C141.38 34.14 137.2 37.38 129.7 37.38H114.37V8.69H128.92C136.01 8.69 140.11 11.44 140.11 16.19C140.11 18.94 138.76 21.07 136.42 22.34C139.58 23.49 141.38 25.74 141.38 29.06ZM123.88 19.72H127.98C129.62 19.72 130.36 19.02 130.36 17.63C130.36 16.24 129.62 15.46 127.98 15.46H123.88V19.72ZM131.63 28.33C131.63 26.85 130.85 26.12 129.25 26.12H123.88V30.63H129.25C130.85 30.63 131.63 29.81 131.63 28.34V28.33Z" fill="white"/>
<path d="M171.46 26.97C171.46 33.81 166.62 37.38 159.04 37.38H144.82V8.69H154.33V17.5H160.27C167.28 17.5 171.46 20.62 171.46 26.97ZM161.75 27.13C161.75 24.96 160.32 24.26 158.39 24.26H154.33V30.61H158.39C160.32 30.61 161.75 29.34 161.75 27.13ZM174.09 8.69H183.6V37.38H174.09V8.69Z" fill="white"/>
<path d="M188.67 8.69H198.18V23.61L208.06 8.69H217.16V37.38H207.65V22.5L197.81 37.38H188.67V8.69ZM193.96 0H200.39C200.39 1.8 201.01 2.62 202.89 2.62C204.77 2.62 205.47 1.8 205.47 0H211.9C211.9 4.55 209.4 7.05 202.88 7.05C196.36 7.05 193.95 4.55 193.95 0H193.96Z" fill="white"/>
<path d="M86.7802 49.57V78.26H46.7402V49.57H56.2502V70.76H62.0302V49.57H71.5402V70.76H77.2802V49.57H86.7902H86.7802Z" fill="white"/>
<path d="M112.11 73.26H101.21L99.2804 78.26H89.4404L101.98 49.57H111.49L124.03 78.26H114.03L112.1 73.26H112.11ZM109.45 66.29L106.66 59.08L103.87 66.29H109.44H109.45Z" fill="white"/>
<path d="M148.55 57.07H136.21V78.26H126.7V49.57H148.55V57.07Z" fill="white"/>
</g>
<defs>
<linearGradient id="paint0_linear_431_80" x1="225.13" y1="77.93" x2="264.46" y2="38.59" gradientUnits="userSpaceOnUse">
<stop stop-color="#498DF4"/>
<stop offset="0.17" stop-color="#4689F4"/>
<stop offset="0.34" stop-color="#407DF4"/>
<stop offset="0.5" stop-color="#3469F4"/>
<stop offset="0.66" stop-color="#254EF4"/>
<stop offset="0.67" stop-color="#254EF4"/>
</linearGradient>
<linearGradient id="paint1_linear_431_80" x1="235.87" y1="37.61" x2="255.55" y2="17.93" gradientUnits="userSpaceOnUse">
<stop stop-color="#54D1CC"/>
<stop offset="1" stop-color="#4BA1EB"/>
</linearGradient>
<linearGradient id="paint2_linear_431_80" x1="37.57" y1="86.95" x2="-1.76" y2="48.36" gradientUnits="userSpaceOnUse">
<stop stop-color="#498DF4"/>
<stop offset="0.17" stop-color="#4689F4"/>
<stop offset="0.34" stop-color="#407DF4"/>
<stop offset="0.5" stop-color="#3469F4"/>
<stop offset="0.66" stop-color="#254EF4"/>
<stop offset="0.67" stop-color="#254EF4"/>
</linearGradient>
<linearGradient id="paint3_linear_431_80" x1="26.83" y1="86.95" x2="7.15" y2="86.95" gradientUnits="userSpaceOnUse">
<stop stop-color="#54D1CC"/>
<stop offset="1" stop-color="#4BA1EB"/>
</linearGradient>
<clipPath id="clip0_431_80">
<rect width="262.7" height="78.26" fill="white"/>
</clipPath>
</defs>
</svg>
